<svg width="50" height="50" fill="none" xmlns="http://www.w3.org/2000/svg"><path d="M42.969 6.25a5.469 5.469 0 00-5.407 4.688h-9.437V12.5H37.5v30.469a.781.781 0 001.563 0 3.906 3.906 0 117.812 0v.164a3.75 3.75 0 01-3.742 3.742H3.125V30.716a21.171 21.171 0 0018.75 11.471.781.781 0 100-1.562 19.407 19.407 0 01-8.46-1.96l.485-1.809a2.285 2.285 0 002.073-1.718l2.572-9.591a13.99 13.99 0 001.767.212v.803a.781.781 0 101.563 0v-.803a13.992 13.992 0 001.767-.21l2.571 9.586a2.281 2.281 0 002.075 1.719l.645 2.41a.782.782 0 101.51-.404l-.645-2.404a2.35 2.35 0 00.937-2.526L25.61 14.8a5.454 5.454 0 00-1.39-7.563v-2.55a3.125 3.125 0 00-6.25 0v2.55a5.454 5.454 0 00-1.39 7.562l-5.131 19.135a2.344 2.344 0 00.942 2.522L12 37.909A19.508 19.508 0 013.124 26.54V12.5h10.938v-1.563h-12.5v37.5h41.57a5.312 5.312 0 005.304-5.307V11.719A5.475 5.475 0 0042.97 6.25zM21.875 24.172v-.735a.781.781 0 10-1.563 0v.735a12.6 12.6 0 01-1.355-.156l1.834-6.843c.101.006.2.016.303.016.102 0 .201-.01.302-.016l1.834 6.843c-.448.077-.9.129-1.355.156zm7.354 10.16a.788.788 0 01-.547.957h-.005a.781.781 0 01-.817-.28.768.768 0 01-.131-.273L22.93 16.863a5.41 5.41 0 001.412-.755l4.887 18.224zM19.53 4.687a1.563 1.563 0 013.125 0v1.797a5.412 5.412 0 00-3.125 0V4.688zm1.563 3.125a3.906 3.906 0 110 7.812 3.906 3.906 0 010-7.812zm-8.136 26.523l4.887-18.227c.431.32.907.574 1.412.755L14.463 34.74a.781.781 0 01-.945.553h-.007a.788.788 0 01-.553-.958zm33.917 4.81a5.462 5.462 0 00-7.813 0V11.719a3.906 3.906 0 117.813 0v27.425z" fill="#fff"/><path d="M21.094 14.063a2.344 2.344 0 100-4.69 2.344 2.344 0 000 4.69zm0-3.126a.78.78 0 110 1.562.78.78 0 010-1.562z" fill="#fff"/></svg>