<svg width="70" height="70" fill="none" xmlns="http://www.w3.org/2000/svg"><path d="M68.542 57.123c0 2.433-1.91 4.411-4.273 4.411h-39.58c-2.362 0-4.272-1.978-4.272-4.411V32.237c0-2.433 1.91-4.411 4.273-4.411h39.593c2.363 0 4.273 1.979 4.273 4.411v24.886h-.014z" stroke="#fff" stroke-width="2" stroke-miterlimit="10"/><path d="M17.5 53.342l-1.604.586c-2.275.835-4.871-.293-5.702-2.58L1.706 27.944c-.831-2.286.438-4.866 2.713-5.686L41.417 8.729c2.275-.835 4.68.396 5.512 2.682l4.886 13.498m16.727 10.245H20.417m48.125 7.328H20.417m4.375 5.862H35" stroke="#fff" stroke-width="2" stroke-miterlimit="10"/></svg>