<svg width="70" height="70" fill="none" xmlns="http://www.w3.org/2000/svg"><g clip-path="url(#clip0_45:352)" fill="#fff"><path d="M14.629 25.977c0 11.308 9.2 20.507 20.508 20.507s20.508-9.2 20.508-20.507c0-11.309-9.2-20.508-20.508-20.508-11.309 0-20.508 9.2-20.508 20.508zM35.137 8.203c9.8 0 17.773 7.973 17.773 17.774 0 9.8-7.973 17.773-17.773 17.773s-17.774-7.973-17.774-17.773S25.336 8.203 35.137 8.203z"/><path d="M22.475 23.54l5.3 5.22-1.22 7.34a1.367 1.367 0 001.98 1.437l6.602-3.429 6.602 3.429a1.367 1.367 0 001.978-1.438l-1.219-7.338 5.3-5.222a1.366 1.366 0 00-.757-2.326l-7.354-1.107-3.328-6.655a1.367 1.367 0 00-2.445 0l-3.328 6.655-7.354 1.107a1.367 1.367 0 00-.757 2.326zm9.22-.836c.44-.066.82-.342 1.02-.74l2.422-4.844 2.422 4.844c.199.398.58.674 1.02.74l5.352.806-3.857 3.8a1.37 1.37 0 00-.39 1.199l.888 5.34-4.806-2.494a1.364 1.364 0 00-1.26 0l-4.805 2.495.888-5.341a1.366 1.366 0 00-.39-1.199l-3.857-3.8 5.353-.806zm4.809-21.337a1.367 1.367 0 11-2.734 0 1.367 1.367 0 012.734 0z"/><path d="M28.693.806C17.193 3.742 9.16 14.092 9.16 25.976a25.895 25.895 0 008.551 19.263L9.475 59.755a1.367 1.367 0 001.467 2.013l9.354-1.942 3.287 9.264a1.367 1.367 0 002.477.219l9.077-15.958 9.076 15.958a1.367 1.367 0 002.477-.219l3.287-9.264 9.354 1.942a1.368 1.368 0 001.467-2.013l-8.237-14.516a25.895 25.895 0 008.552-19.262c0-11.885-8.032-22.235-19.533-25.17a1.367 1.367 0 10-.676 2.649c10.289 2.626 17.475 11.887 17.475 22.52 0 12.943-10.51 23.243-23.242 23.243-12.74 0-23.242-10.309-23.242-23.242 0-10.634 7.185-19.895 17.474-22.521a1.368 1.368 0 00-.676-2.65zM25.161 65.36l-2.687-7.571a1.367 1.367 0 00-1.566-.882l-7.564 1.571 6.519-11.489a26.032 26.032 0 0012.981 4.864L25.161 65.36zm24.204-8.453a1.368 1.368 0 00-1.566.882l-2.687 7.571-7.683-13.507c4.68-.417 9.18-2.1 12.982-4.864l6.518 11.489-7.564-1.57z"/></g><defs><clipPath id="clip0_45:352"><path fill="#fff" d="M0 0h70v70H0z"/></clipPath></defs></svg>