<svg width="23" height="23" fill="none" xmlns="http://www.w3.org/2000/svg"><g clip-path="url(#clip0_7:21)"><path d="M14.399 3.833a4.792 4.792 0 013.785 3.786M14.4 0a8.625 8.625 0 017.619 7.61m-.959 7.647v2.875a1.915 1.915 0 01-2.089 1.916 18.966 18.966 0 01-8.27-2.942 18.689 18.689 0 01-5.75-5.75 18.966 18.966 0 01-2.942-8.309A1.917 1.917 0 013.915.958H6.79a1.917 1.917 0 011.917 1.649c.12.92.346 1.823.67 2.693a1.917 1.917 0 01-.43 2.022L7.728 8.539a15.334 15.334 0 005.75 5.75l1.217-1.217a1.916 1.916 0 012.022-.432c.87.325 1.773.55 2.693.671a1.916 1.916 0 011.648 1.946z" stroke="#fff" stroke-width="2" stroke-linecap="round" stroke-linejoin="round"/></g><defs><clipPath id="clip0_7:21"><path fill="#fff" d="M0 0h23v23H0z"/></clipPath></defs></svg>