<svg width="50" height="50" fill="none" xmlns="http://www.w3.org/2000/svg"><g clip-path="url(#clip0_45:712)"><path d="M48.715 36.878l-6.216-6.215a4.4 4.4 0 00-6.216 0l-2.825 2.825a3.334 3.334 0 01-4.708 0L16.503 21.232a3.328 3.328 0 010-4.71c.456-.454 1.762-1.76 2.826-2.824a4.393 4.393 0 00-.002-6.218l-6.214-6.194a4.399 4.399 0 00-6.211-.005L4.637 3.526c-6.18 6.18-6.18 16.235 0 22.415L24.04 45.353c6.194 6.194 16.22 6.195 22.415 0l2.26-2.26a4.4 4.4 0 000-6.216zM8.969 3.358a1.467 1.467 0 012.074.001l6.214 6.195a1.465 1.465 0 010 2.072l-1.036 1.036-8.282-8.283 1.03-1.021zm17.144 39.925L6.709 23.869A12.88 12.88 0 015.9 6.485l8.258 8.258a6.254 6.254 0 00.272 8.56L26.677 35.56a6.254 6.254 0 008.56.273l8.259 8.259a12.856 12.856 0 01-17.383-.808zm20.53-2.261l-1.036 1.036-8.288-8.288 1.036-1.036a1.467 1.467 0 012.072 0l6.216 6.216c.571.571.571 1.5 0 2.072z" fill="#fff"/></g><defs><clipPath id="clip0_45:712"><path fill="#fff" d="M0 0h50v50H0z"/></clipPath></defs></svg>