<svg width="50" height="50" fill="none" xmlns="http://www.w3.org/2000/svg"><g clip-path="url(#clip0_45:737)" fill="#fff"><path d="M26.236 23.765a.977.977 0 10-1.381 1.38.977.977 0 001.381-1.38zm12.429-12.43a4.88 4.88 0 00-6.905 0 4.89 4.89 0 000 6.905 4.89 4.89 0 006.905 0 4.88 4.88 0 000-6.905zm-1.38 5.524a2.934 2.934 0 01-4.144 0 2.934 2.934 0 010-4.143 2.929 2.929 0 014.143 0 2.928 2.928 0 010 4.143z"/><path d="M49.714.286a.973.973 0 00-.726-.285c-.22.008-5.478.219-11.727 2.428-5.008 1.768-9.182 4.3-12.407 7.524a37.168 37.168 0 00-2.098 2.285c-3.189-1.877-5.744-1.288-7.359-.424-3.718 1.99-6.02 7.394-6.02 11.26a.977.977 0 001.667.69c1.961-1.961 4.38-1.839 5.17-1.735l.343.342a34.332 34.332 0 00-1.613 4.743 2.764 2.764 0 00.118 1.697 9.245 9.245 0 00-2.637 1.859C9.91 33.184 9.4 39.31 9.38 39.57a.976.976 0 001.05 1.05c.26-.02 6.386-.53 8.9-3.045a9.247 9.247 0 001.86-2.636 2.758 2.758 0 001.696.117 34.36 34.36 0 004.743-1.612l.342.342c.104.79.226 3.209-1.735 5.17a.977.977 0 00.69 1.667c3.866 0 9.27-2.302 11.26-6.02.864-1.616 1.453-4.17-.424-7.359a37.22 37.22 0 002.285-2.098c3.224-3.225 5.756-7.4 7.524-12.407 2.209-6.25 2.42-11.507 2.428-11.727a.977.977 0 00-.285-.726zM11.56 20.973c.607-2.936 2.369-6.158 4.76-7.437 1.597-.855 3.343-.771 5.2.245a39.483 39.483 0 00-4.103 6.688c-.015-.009-.19-.23-.517-.303-.134-.03-2.718-.586-5.34.807zm6.39 15.221c-1.344 1.343-4.493 2.051-6.484 2.34.289-1.99.997-5.14 2.34-6.483.752-.752 1.624-1.322 2.5-1.643l3.286 3.286c-.32.877-.89 1.748-1.643 2.5zm4.451-3.03c-.282.073-.61-.034-.853-.277l-1.913-1.912-2.522-2.522c-.243-.244-.35-.572-.277-.854a31.72 31.72 0 011.219-3.73l8.076 8.076a31.697 31.697 0 01-3.73 1.22zm14.063.517c-1.28 2.39-4.5 4.152-7.436 4.759.936-1.761 1.142-4.004.8-5.363-.08-.316-.286-.475-.297-.494a39.487 39.487 0 006.688-4.103c1.016 1.857 1.1 3.603.245 5.2zm2.202-9.916c-.88.88-1.828 1.73-2.816 2.526a37.52 37.52 0 01-7.785 4.826l-9.182-9.181a37.513 37.513 0 014.826-7.785 35.437 35.437 0 012.527-2.817c2.893-2.893 6.626-5.196 11.1-6.853l8.183 8.183c-1.657 4.474-3.96 8.207-6.853 11.1zm7.556-13.16l-6.826-6.827a43.904 43.904 0 018.569-1.743 43.92 43.92 0 01-1.743 8.57z"/><path d="M23.474 40.337a.977.977 0 00-1.381 0L19.33 43.1a.977.977 0 001.381 1.38l2.762-2.762a.977.977 0 000-1.381zM9.663 26.526a.977.977 0 00-1.38 0L5.52 29.288a.977.977 0 101.38 1.381l2.763-2.762a.977.977 0 000-1.38zm6.906 15.193a.977.977 0 00-1.381 0l-6.616 6.614a.977.977 0 101.381 1.381L16.57 43.1a.976.976 0 000-1.381zm-7.813 0a.977.977 0 00-1.38 0L.76 48.333a.977.977 0 101.38 1.381L8.757 43.1a.976.976 0 000-1.381zm-.474-8.288a.977.977 0 00-1.382 0L.286 40.047a.977.977 0 001.381 1.38l6.615-6.614a.977.977 0 000-1.382zm22.098-13.81a.977.977 0 00-1.382 0l-1.38 1.38a.977.977 0 001.38 1.382l1.381-1.38a.977.977 0 000-1.382z"/></g><defs><clipPath id="clip0_45:737"><path fill="#fff" d="M0 0h50v50H0z"/></clipPath></defs></svg>