<svg width="70" height="70" fill="none" xmlns="http://www.w3.org/2000/svg"><path d="M39.666 65.328c14.174 0 25.665-11.49 25.665-25.664 0-14.175-11.49-25.665-25.665-25.665-14.174 0-25.664 11.49-25.664 25.665.015 14.167 11.496 25.648 25.664 25.664zm-19.832-26.83h-3.44C17.002 26.548 26.552 17 38.5 16.391v3.44a1.167 1.167 0 002.333 0v-3.44C52.78 17 62.33 26.549 62.938 38.497h-4.607a1.167 1.167 0 100 2.333h4.607c-.608 11.948-10.157 21.498-22.105 22.106v-3.44a1.167 1.167 0 10-2.333 0v3.44c-11.948-.608-21.498-10.158-22.106-22.106h3.44a1.167 1.167 0 000-2.333z" fill="#fff"/><path d="M65.932 24.518a30.257 30.257 0 00-1.105-1.77l2.88-2.88a1.167 1.167 0 000-1.65l-6.591-6.59a1.167 1.167 0 00-1.65 0l-2.885 2.875a30.15 30.15 0 00-15.748-5.141V2.333h8.166a1.167 1.167 0 000-2.333H30.333a1.167 1.167 0 000 2.333H38.5v7.04a30.296 30.296 0 00-25.082 15.125H7.002a1.167 1.167 0 000 2.333h7c.03 0 .055-.015.086-.017.42.005.81-.218 1.018-.584 7.422-13.564 24.436-18.544 38-11.122 13.566 7.422 18.546 24.436 11.123 38-7.422 13.566-24.435 18.545-38 11.123A27.998 27.998 0 0115.106 53.11a1.155 1.155 0 00-1.016-.59c-.03 0-.057-.017-.089-.017h-7a1.167 1.167 0 000 2.333h6.417c8.372 14.501 26.914 19.47 41.415 11.098 14.501-8.371 19.47-26.914 11.099-41.415zm-7.444-8.613l1.803-1.803 4.942 4.941-1.806 1.806a30.655 30.655 0 00-4.94-4.944z" fill="#fff"/><path d="M11.668 39.664c0-.645-.522-1.167-1.166-1.167H1.169a1.167 1.167 0 000 2.333h9.333c.644 0 1.166-.522 1.166-1.166zM3.502 33.83h8.166a1.167 1.167 0 000-2.332H3.502a1.167 1.167 0 000 2.333zm9.333 12.833c0-.644-.523-1.166-1.167-1.166H3.502a1.167 1.167 0 000 2.333h8.166c.645 0 1.167-.523 1.167-1.167zm23.673.825a1.167 1.167 0 001.65 0l16.215-16.215a1.166 1.166 0 00-1.65-1.65l-15.39 15.39-6.941-6.94a1.167 1.167 0 00-1.65 1.65l7.766 7.765z" fill="#fff"/></svg>